{
  "accessors": [
    {
      "bufferView": 2,
      "componentType": 5126,
      "count": 2331,
      "max": [
        0.24799799919128418,
        0.48904600739479065,
        0.19589899480342865
      ],
      "min": [
        -0.24799799919128418,
        -1.0,
        -0.19589899480342865
      ],
      "type": "VEC3"
    },
    {
      "bufferView": 2,
      "byteOffset": 27972,
      "componentType": 5126,
      "count": 2331,
      "max": [
        1.0,
        1.0,
        1.0
      ],
      "min": [
        -1.0,
        -1.0,
        -1.0
      ],
      "type": "VEC3"
    },
    {
      "bufferView": 1,
      "componentType": 5126,
      "count": 2331,
      "max": [
        0.9036329984664917,
        0.9858189821243286
      ],
      "min": [
        0.002175400033593178,
        0.00022227500448934734
      ],
      "type": "VEC2"
    },
    {
      "bufferView": 0,
      "componentType": 5125,
      "count": 10302,
      "type": "SCALAR"
    },
    {
      "bufferView": 2,
      "byteOffset": 55944,
      "componentType": 5126,
      "count": 160,
      "max": [
        0.1694130003452301,
        0.31415998935699463,
        0.16299299895763397
      ],
      "min": [
        -0.1694130003452301,
        -0.9265369772911072,
        -0.12840500473976135
      ],
      "type": "VEC3"
    },
    {
      "bufferView": 2,
      "byteOffset": 57864,
      "componentType": 5126,
      "count": 160,
      "max": [
        0.9964977502822876,
        0.7721840143203735,
        0.9998602271080017
      ],
      "min": [
        -0.9964977502822876,
        -0.5924932956695557,
        -0.9992709755897522
      ],
      "type": "VEC3"
    },
    {
      "bufferView": 1,
      "byteOffset": 18648,
      "componentType": 5126,
      "count": 160,
      "max": [
        0.44659799337387085,
        0.999904990196228
      ],
      "min": [
        9.536289871903136e-05,
        9.536289871903136e-05
      ],
      "type": "VEC2"
    },
    {
      "bufferView": 0,
      "byteOffset": 41208,
      "componentType": 5125,
      "count": 708,
      "type": "SCALAR"
    }
  ],
  "asset": {
    "extras": {
      "author": "Mateus Schwaab (https://sketchfab.com/Mehrus)",
      "license": "CC-BY-4.0 (http://creativecommons.org/licenses/by/4.0/)",
      "source": "https://sketchfab.com/3d-models/night-elf-9d5361211d614576a0bf2be56af22fec",
      "title": "Night Elf"
    },
    "generator": "Sketchfab-12.64.0",
    "version": "2.0"
  },
  "bufferViews": [
    {
      "buffer": 0,
      "byteLength": 44040,
      "name": "floatBufferViews",
      "target": 34963
    },
    {
      "buffer": 0,
      "byteLength": 19928,
      "byteOffset": 44040,
      "byteStride": 8,
      "name": "floatBufferViews",
      "target": 34962
    },
    {
      "buffer": 0,
      "byteLength": 59784,
      "byteOffset": 63968,
      "byteStride": 12,
      "name": "floatBufferViews",
      "target": 34962
    }
  ],
  "buffers": [
    {
      "byteLength": 123752,
      "uri": "scene.bin"
    }
  ],
  "extensionsUsed": [
    "KHR_materials_unlit"
  ],
  "images": [
    {
      "uri": "textures/Dress_baseColor.jpeg"
    },
    {
      "uri": "textures/DefaultMaterial_baseColor.jpeg"
    }
  ],
  "materials": [
    {
      "doubleSided": true,
      "extensions": {
        "KHR_materials_unlit": {}
      },
      "name": "Dress",
      "pbrMetallicRoughness": {
        "baseColorTexture": {
          "index": 0
        },
        "metallicFactor": 0.0
      }
    },
    {
      "doubleSided": true,
      "extensions": {
        "KHR_materials_unlit": {}
      },
      "name": "DefaultMaterial",
      "pbrMetallicRoughness": {
        "baseColorTexture": {
          "index": 1
        },
        "metallicFactor": 0.0
      }
    }
  ],
  "meshes": [
    {
      "name": "defaultMaterial",
      "primitives": [
        {
          "attributes": {
            "NORMAL": 1,
            "POSITION": 0,
            "TEXCOORD_0": 2
          },
          "indices": 3,
          "material": 1,
          "mode": 4
        }
      ]
    },
    {
      "name": "defaultMaterial",
      "primitives": [
        {
          "attributes": {
            "NORMAL": 5,
            "POSITION": 4,
            "TEXCOORD_0": 6
          },
          "indices": 7,
          "material": 0,
          "mode": 4
        }
      ]
    }
  ],
  "nodes": [
    {
      "children": [
        1
      ],
      "matrix": [
        1.0,
        0.0,
        0.0,
        0.0,
        0.0,
        2.220446049250313e-16,
        -1.0,
        0.0,
        0.0,
        1.0,
        2.220446049250313e-16,
        0.0,
        0.0,
        0.0,
        0.0,
        1.0
      ],
      "name": "Sketchfab_model"
    },
    {
      "children": [
        2,
        4
      ],
      "matrix": [
        1.0,
        0.0,
        0.0,
        0.0,
        0.0,
        -4.371139006309477e-08,
        0.999999999999999,
        0.0,
        0.0,
        -0.999999999999999,
        -4.371139006309477e-08,
        0.0,
        0.0,
        0.0,
        0.0,
        1.0
      ],
      "name": "Collada visual scene group"
    },
    {
      "children": [
        3
      ],
      "name": "RetopoFlow.003"
    },
    {
      "mesh": 0,
      "name": "defaultMaterial"
    },
    {
      "children": [
        5
      ],
      "name": "RetopoFlow.000"
    },
    {
      "mesh": 1,
      "name": "defaultMaterial"
    }
  ],
  "samplers": [
    {
      "magFilter": 9729,
      "minFilter": 9987,
      "wrapS": 10497,
      "wrapT": 10497
    }
  ],
  "scene": 0,
  "scenes": [
    {
      "name": "Sketchfab_Scene",
      "nodes": [
        0
      ]
    }
  ],
  "textures": [
    {
      "sampler": 0,
      "source": 0
    },
    {
      "sampler": 0,
      "source": 1
    }
  ]
}
